<svg id="Illustration" xmlns="http://www.w3.org/2000/svg" viewBox="0 0 2500 2500"><defs><style>.cls-1{fill:#e8e8fc;}.cls-2{fill:#d3d3f4;}.cls-3{fill:#f8f8ff;}.cls-4{fill:#b889e0;}.cls-5{fill:#7e4dc4;}.cls-6{fill:#352a7f;}.cls-7{fill:#fff;}.cls-8{fill:#ffd1ab;}.cls-9{fill:#fea046;}.cls-10{fill:#e15254;}.cls-11{fill:#ffb6b1;}.cls-12{fill:#f47382;}.cls-13{opacity:0.69;}.cls-14{fill:#2d1164;}.cls-15{fill:#6565a5;}.cls-16{fill:#c64456;}.cls-17{fill:#b0b0ea;}</style></defs><circle class="cls-1" cx="1153.69" cy="949.98" r="788.16"/><path class="cls-2" d="M1010.65,2229.55a631.67,631.67,0,0,1-98.62-7.67c-140.92-22.32-260-92.14-326.82-191.56-29.06-43.26-44.73-86.62-46.57-128.87q-.37-8.68.08-17.22c-23.49-8-45.7-20.7-66.09-38a247.24,247.24,0,0,1-52.31-62c-25.09-41.9-40.81-93.67-46.73-153.88-9.39-95.45,8.28-193.87,51.12-284.61S532.29,1178.81,612,1125.4a2.06,2.06,0,1,1,2.29,3.42C453.85,1236.37,358.78,1437.76,377.69,1630c5.86,59.59,21.4,110.79,46.17,152.16,28.39,47.41,69.12,82,115.14,97.85,3.21-41.45,20.9-79.24,49.3-103.87,23.68-20.52,61.78-31.09,85.76-10.26,12.66,11,19.08,30,16.77,49.45-3.52,29.68-25.71,56.92-56.53,69.41-26.41,10.71-58.83,11-91.3.91l-.22-.06c-.24,5.19-.25,10.44,0,15.72,1.81,41.49,17.24,84.13,45.87,126.76,66.14,98.46,184.25,167.63,324,189.78,158.74,25.15,323.07-11.54,450.85-100.64,131.07-91.4,220.55-238,239.35-392.22a2.07,2.07,0,0,1,4.1.5c-19,155.34-109.08,303-241.09,395.1-64.38,44.89-137.38,76.54-217,94.06A645,645,0,0,1,1010.65,2229.55ZM543,1881.3l1.2.38c31.55,9.83,63,9.55,88.52-.8,29.45-11.93,50.64-37.87,54-66.07,2.15-18.17-3.74-35.74-15.39-45.85-22.22-19.32-58-9.13-80.35,10.26C563.18,1803.34,545.94,1840.53,543,1881.3Z"/><path class="cls-2" d="M1707.91,931.87a2,2,0,0,1-1.37-.52,2.07,2.07,0,0,1-.18-2.91c55.76-62.93,81.3-150.1,68.34-233.18S1710.83,537,1638.54,494a2.06,2.06,0,1,1,2.11-3.54c35.81,21.27,67.45,51.32,91.51,86.89s40.18,76.12,46.61,117.28,3.43,84.68-8.64,125.9-33.06,79.47-60.68,110.65A2,2,0,0,1,1707.91,931.87Z"/><path class="cls-2" d="M1799.34,2067.77a2.06,2.06,0,0,1-.76-.15c-29-11.62-51.34-42.35-56.87-78.28-4.4-28.55.44-60.58,14.78-97.94,11.91-31,26-54.6,43.23-72,31.83-32.29,76.15-46.58,119-60.41,17.28-5.58,35.15-11.34,51.92-18.2,80.66-33,145.29-98.37,172.9-174.88,20.22-56,22.76-121.1,7.36-188.19-12.62-55-37.29-112.29-75.39-175.09a2.06,2.06,0,1,1,3.52-2.14c38.34,63.18,63.16,120.85,75.89,176.31,15.58,67.86,13,133.74-7.5,190.51-28,77.59-93.5,143.86-175.22,177.29-16.91,6.92-34.86,12.71-52.21,18.31-42.39,13.68-86.23,27.82-117.34,59.39-16.78,17-30.62,40.11-42.33,70.61-14.07,36.66-18.83,68-14.55,95.83,5.31,34.52,26.64,64,54.33,75.08a2.06,2.06,0,0,1-.77,4Z"/><circle class="cls-3" cx="940.47" cy="528.86" r="331.13"/><path class="cls-4" d="M1854.33,323.69l-1475,886.13s-8.44-25.72-10.63-70.24h0c-6.37-129.63,40.3-418.66,502.58-696.38,442.81-266,753.91-213.45,896-161.36h0C1824.52,302.8,1854.33,323.69,1854.33,323.69Z"/><path class="cls-5" d="M1854.33,323.69l-1475,886.13s-8.44-25.72-10.63-70.24h0s48.83-197.66,602.4-530.22c551.41-331.27,794.31-327.55,796.19-327.52h0C1824.52,302.8,1854.33,323.69,1854.33,323.69Z"/><ellipse class="cls-6" cx="1116.83" cy="766.76" rx="860.36" ry="141.33" transform="translate(-235.38 684.63) rotate(-31)"/><path class="cls-7" d="M656.64,1053l8.9,7.25A18.37,18.37,0,0,1,656.64,1053Z"/><path d="M668.59,1062.1l-3.24-1.37a18.87,18.87,0,0,1-9.13-7.45l-1.48-2.45Z"/><ellipse class="cls-5" cx="689.62" cy="680.9" rx="107.51" ry="45.43" transform="translate(-271.46 556.31) rotate(-37.25)"/><path class="cls-8" d="M628.1,743.37c-4.1,0-11.44-.61-14.51-4.65-4.06-5.34-1.57-17.37,6.48-31.4,10.19-17.76,27.7-36.59,49.32-53,28.64-21.78,60.73-35.85,81.75-35.85,4.1,0,11.43.6,14.51,4.65,8.25,10.85-9.38,49.13-55.8,84.42C681.21,729.29,649.12,743.37,628.1,743.37Z"/><ellipse class="cls-5" cx="517.94" cy="845.02" rx="77.02" ry="28.07" transform="translate(-457.79 671.04) rotate(-48.38)"/><path class="cls-8" d="M475.73,893.56a6.2,6.2,0,0,1-.88,0c-.53-1.87-.57-8,4.49-19.53,5.47-12.41,14.91-26.49,26.59-39.63,21.85-24.59,44.24-37.87,54.22-37.87a6.13,6.13,0,0,1,.88.06c.53,1.87.57,8-4.5,19.52-5.47,12.42-14.91,26.49-26.58,39.63C508.1,880.29,485.71,893.56,475.73,893.56Z"/><ellipse class="cls-5" cx="1501.57" cy="290.67" rx="77.02" ry="28.07" transform="translate(-26.24 361.42) rotate(-13.61)"/><path class="cls-8" d="M1465.7,311.42c-18.17,0-25.56-3.94-27.19-5.49.62-1.83,4.09-6.92,14.84-13.49,11.57-7.08,27.36-13.25,44.44-17.39a172.21,172.21,0,0,1,39.64-5.13c18.18,0,25.56,3.93,27.19,5.49-.62,1.82-4.09,6.91-14.83,13.48-11.58,7.08-27.36,13.26-44.44,17.39a172.32,172.32,0,0,1-39.64,5.14Z"/><ellipse class="cls-5" cx="1256.24" cy="359.44" rx="107.51" ry="45.43" transform="translate(-35.11 558.79) rotate(-24.74)"/><path class="cls-8" d="M1197.1,408.49c-14.45,0-25-3.48-27.61-9.08-2.8-6.08,2.23-17.29,13.13-29.24,13.79-15.14,35-29.73,59.63-41.09,25.77-11.88,52.43-18.7,73.13-18.7,14.45,0,25,3.48,27.61,9.08,2.8,6.08-2.23,17.29-13.13,29.25-13.79,15.13-35,29.72-59.63,41.09-25.77,11.87-52.43,18.69-73.13,18.69Z"/><ellipse class="cls-5" cx="960.11" cy="505.89" rx="132" ry="55.77" transform="translate(-124.89 528.29) rotate(-28.97)"/><path class="cls-8" d="M884.63,574.32c-15.13,0-25.88-3.76-29.51-10.31-8.85-16,18.74-60.41,83.79-96.42,34.08-18.87,70.22-30.13,96.68-30.13,15.12,0,25.88,3.76,29.5,10.31,8.86,16-18.74,60.41-83.78,96.42C947.23,563.05,911.08,574.32,884.63,574.32Z"/><ellipse class="cls-7" cx="1118.48" cy="794.94" rx="497.78" ry="81.77" transform="matrix(0.86, -0.51, 0.51, 0.86, -249.66, 689.5)"/><path d="M718.07,1061.25c-13.78,0-22.82-3.21-26.72-9.71-11.39-19,22.46-63.45,95.3-125.28,72.66-61.68,175.46-133.36,289.46-201.84s225.56-125.59,314.13-160.77c88.8-35.28,144-44.27,155.37-25.31s-22.46,63.45-95.31,125.28C1377.64,725.3,1274.84,797,1160.85,865.46S935.29,991,846.72,1026.23C788.35,1049.42,744.5,1061.25,718.07,1061.25Zm801-531.65a142.62,142.62,0,0,0-23.76,2.35c-26.47,4.56-61.71,15.53-104.73,32.63-88.52,35.16-200,92.23-314,160.69S859.92,865.38,787.3,927c-35.29,30-61.53,55.91-78,77.14-16.92,21.83-22.67,37.6-17.11,46.87s22.2,11.59,49.41,6.9c26.48-4.56,61.71-15.53,104.74-32.63,88.52-35.16,200-92.23,314-160.69S1377,724.5,1449.65,662.86c35.3-30,61.54-55.91,78-77.14,16.92-21.83,22.68-37.6,17.11-46.87C1541.05,532.69,1532.45,529.6,1519.1,529.6Z"/><path class="cls-9" d="M1599.4,515.82l1.52,15.62,11.58,119.22L759.1,1163.35l-91.91-74.9-8.9-7.25c-25.64-42.69,164.24-203.86,424.12-360S1573.76,473.13,1599.4,515.82Z"/><ellipse class="cls-10" cx="1185.8" cy="907.01" rx="497.78" ry="81.77" transform="translate(-297.76 740.17) rotate(-31)"/><path class="cls-1" d="M1217.59,959.91c-211.12,126.83-396.5,206-414,176.74S942.9,980.93,1154,854.1s396.49-206,414.05-176.74S1428.7,833.08,1217.59,959.91Z"/><path class="cls-3" d="M1217.59,959.91c-211.12,126.83-396.5,206-414,176.74l764.53-459.29C1585.62,706.58,1428.7,833.08,1217.59,959.91Z"/><circle class="cls-7" cx="871.38" cy="250.96" r="21.83"/><circle class="cls-7" cx="976.32" cy="283.13" r="57.83"/><path class="cls-3" d="M803.54,1136.65l59.23,856.89,369-316.75s292.11,130.23,300,89.32,259.77-405.48,259.77-405.48l200.62-50,147.75-172.85L1568.07,677.36,803.54,1136.65Z"/><path class="cls-11" d="M1622,1302s2,67.13,42.92,83.84,79.46-49.14,79.46-49.14-7.09-34.24-4.14-56.9a71.59,71.59,0,0,1,4.74-17c6.77-16.82,11.3-31.84,11.3-31.84l-63.48-13s-.51,2.24-11.46,39.49a79.88,79.88,0,0,1-12.88,24.83C1650.87,1306.06,1622,1302,1622,1302Z"/><path class="cls-12" d="M1668.43,1282.36c1.24,11.42,2.74,22,4.2,24.39,3.46,5.63,27.23-4.15,48-23.34,6-5.58,12.13-13.17,17.72-21.16,6.77-16.82,17.9-31.25,17.9-31.25l-63.48-13s-.51,2.24-11.46,39.49A79.88,79.88,0,0,1,1668.43,1282.36Z"/><path class="cls-11" d="M1328.62,1238s-1.5-39.59-2.09-45.56,1-30.36,2.63-35-2.87-4.37-8,1.47-8.62,11.42-9.34,16.36-6.15,19.21-6.15,19.21-19.23-21.67-21.68-27.08-14.51-29.93-16.34-35-7.21-3.63-9,.22-.16,11.32,1.94,18.66,17.82,38.46,17.82,38.46-17.66-21.78-23.39-29.87-8.53-16.73-12.45-22.19-7.83-4.37-9.43-1.1-1.41,8.13-1.41,8.13-3.72,1.13-4.68,6.13,6,19,9.74,26.53,24.41,30.94,22.33,29.43-16-12.58-25.2-20.67-11-11.12-12.3-9a9,9,0,0,0-.12,9.18c2,3.39,18.35,17.9,21.38,24.1s6.32,17.51,17.26,30.36,21.2,13,27.7,21.57,7,11.25,7.55,11.38,44.16-15.56,44.16-15.56Z"/><path class="cls-12" d="M1269.19,1199a1.46,1.46,0,0,1-1-.39c-19.08-17-37-51.6-37.79-53.06a1.5,1.5,0,0,1,2.67-1.38c.18.36,18.46,35.53,37.12,52.21a1.5,1.5,0,0,1,.11,2.12A1.48,1.48,0,0,1,1269.19,1199Z"/><path class="cls-12" d="M1287.36,1233.33a1.5,1.5,0,0,1-1.49-1.45c-.85-23,18.05-37.9,18.86-38.52a1.5,1.5,0,0,1,1.84,2.37c-.19.14-18.49,14.64-17.71,36a1.5,1.5,0,0,1-1.44,1.56Z"/><path class="cls-12" d="M1252.06,1220.16a1.52,1.52,0,0,1-.68-.17,1.5,1.5,0,0,1-.65-2c12.47-24.2,35.83-33.25,36.82-33.62a1.5,1.5,0,0,1,1.06,2.8c-.23.09-23.28,9-35.21,32.19A1.51,1.51,0,0,1,1252.06,1220.16Z"/><path class="cls-11" d="M2053.3,1186.12s4-35.5,4.89-40.83,1.07-27.38-.05-31.63,2.87-3.75,7.11,1.84,7,10.85,7.32,15.34,4.26,17.68,4.26,17.68,18.73-18.22,21.29-22.91,15-26,17-30.36,6.73-2.79,8,.8-.6,10.19-3,16.65-18.57,33.41-18.57,33.41,17.33-18.42,23-25.32,8.78-14.48,12.67-19.13,7.33-3.41,8.56-.36.72,7.4.72,7.4,3.27,1.26,3.81,5.82-6.67,16.73-10.52,23.22-24,26.21-22,25,15.25-10.25,24-16.92,10.58-9.28,11.66-7.24a8.1,8.1,0,0,1-.5,8.27c-2,2.91-17.69,14.88-20.83,20.25s-6.84,15.33-17.53,26.16-19.93,10.29-26.34,17.57-7,9.65-7.55,9.74-38.68-16.92-38.68-16.92Z"/><path class="cls-12" d="M2109.42,1155.06a1.5,1.5,0,0,1-.91-2.69c17.86-13.75,36.61-44.15,36.8-44.45a1.5,1.5,0,1,1,2.56,1.57c-.78,1.26-19.23,31.17-37.53,45.26A1.5,1.5,0,0,1,2109.42,1155.06Z"/><path class="cls-12" d="M2090.81,1184.77h-.17a1.51,1.51,0,0,1-1.33-1.66c2.12-19.12-13.33-33.32-13.48-33.46a1.49,1.49,0,0,1-.11-2.12,1.51,1.51,0,0,1,2.12-.11c.68.62,16.74,15.35,14.46,36A1.51,1.51,0,0,1,2090.81,1184.77Z"/><path class="cls-12" d="M2123.43,1175.26a1.51,1.51,0,0,1-1.39-.91c-9.17-21.55-29.26-31.12-29.46-31.21a1.5,1.5,0,0,1,1.26-2.72c.87.4,21.33,10.11,31,32.75a1.5,1.5,0,0,1-1.37,2.09Z"/><path class="cls-11" d="M1212.57,2224.64s-31.8,40.83-36,53.82-6.23,24.88-9.24,37.73-3.08,34-9.48,44.61-32.64,11-51.53,3.72-46.91-7.65-58.74-6.22-26.55,3.82-44.73,2.42-25.11-5.13-27.45-10.61-1.36-12.2-2-18.48,2.57-14.48,3.76-18.47,13.42-9.18,18.15-9.76,27.86,3,59.83-8.56,38-11.09,50.14-25.16,35.85-75.77,35.85-75.77Z"/><path class="cls-11" d="M981.69,1946.69s-38.23,26.8-45.28,36.9-12,19.82-18,30.1-11.66,28.5-20,36-31.08.88-45.44-10.44-38.43-19-49-20.9-23.91-3.74-39.21-9.76-20.31-11.07-20.88-16.41,2.06-10.89,3.17-16.48,6-11.8,8.14-14.92,14-4.38,18.23-3.62,23.24,9.95,53.88,8.45,35.74.5,49.9-8.43,51-55.87,51-55.87Z"/><path class="cls-5" d="M1656.44,1695.21s-18.15,116.81-56.83,157.85-148.37,68.66-169.68,73.4-18.94,7.1-25.26,17.36-45,77.35-82.08,115.23-70.24,124.7-76.56,134.17-15,46.57-20.52,48.14-44.19,3.16-48.14,0-41.83-15-52.09-22.09-7.89-19.74-6.31-23.68,66.29-131.8,82.08-172.84,89.18-159.43,96.29-180,11-25.26,15-28.41,50.51-28.42,50.51-28.42-143.64-31.83-152.58-28.14-6.32,5.78-14.74,12.62-125.22,96.82-144.69,126.28-52.62,64.46-63.66,67.61-37.1-4.73-49.73-14.2-36.3-29.21-36.3-38.68,102.6-142.06,149.95-197.31,100.24-108.91,113.65-113.65,39.47-.79,51.3,0,168.9,26.84,189.42,23.68,35.52-17.36,35.52-17.36S1608.29,1648.65,1656.44,1695.21Z"/><path class="cls-4" d="M1362.84,1788a2,2,0,0,1-.7-3.88c.52-.19,52.42-19.8,71.35-39.25a2,2,0,0,1,2.87,2.8c-19.56,20.08-70.65,39.39-72.82,40.2A2.11,2.11,0,0,1,1362.84,1788Z"/><path class="cls-4" d="M1446,1755.62a2,2,0,0,1-1-.25c-22.34-12.24-34.47-33.55-35-34.45a2,2,0,0,1,3.49-2c.12.21,12.11,21.23,33.42,32.9a2,2,0,0,1-1,3.76Z"/><path class="cls-4" d="M1460.71,1738.78a2,2,0,0,1-.59-.09l-28.42-8.79a2,2,0,1,1,1.19-3.82l28.41,8.79a2,2,0,0,1-.59,3.91Z"/><path class="cls-4" d="M1441.79,1732.92a2,2,0,0,1-1-3.72c33.26-19.49,57.51-75.37,57.75-75.94a2,2,0,0,1,3.68,1.58c-1,2.34-25,57.65-59.4,77.81A2,2,0,0,1,1441.79,1732.92Z"/><path class="cls-4" d="M1466.54,1711.1a2,2,0,0,1-1.43-.6c-.43-.44-10.5-10.87-6.3-23.46,3.93-11.78,28.44-42.5,29.48-43.8a2,2,0,1,1,3.13,2.5c-.25.31-25.11,31.46-28.82,42.56-3.41,10.25,5.28,19.31,5.37,19.4a2,2,0,0,1,0,2.82A2,2,0,0,1,1466.54,1711.1Z"/><path class="cls-4" d="M1190,2245.19a2,2,0,0,1-.78-.16,2,2,0,0,1-1.06-2.62c.23-.54,23.12-54.37,40.33-86.44,9-16.71,14.24-25.16,20.91-35.86,6.27-10.05,14.08-22.56,27.65-46.27,16.87-29.46,51.4-81.51,97.22-146.58l1.93-2.74a60.46,60.46,0,0,0,4.9-8.18c1.55-3,3.48-6.73,8.46-14.63,4.74-7.49,24.67-13.46,52.25-21.72,30.77-9.22,69.07-20.69,96.53-38.09,49.86-31.58,81.39-142,81.71-143.07a2,2,0,0,1,3.85,1.08c-1.3,4.6-32.28,113-83.42,145.37-27.93,17.69-66.52,29.25-97.52,38.54-24.73,7.4-46.08,13.8-50,20-4.9,7.75-6.78,11.4-8.3,14.32a63.16,63.16,0,0,1-5.17,8.65l-1.94,2.74c-45.75,65-80.21,116.91-97,146.27-13.61,23.78-21.44,36.32-27.73,46.4-6.63,10.63-11.87,19-20.78,35.63-17.12,31.91-39.94,85.57-40.17,86.11A2,2,0,0,1,1190,2245.19Z"/><path class="cls-4" d="M1601.19,1758.3a2,2,0,0,1-.07-4c33.6-1.1,34.77-35.77,34.81-37.25a2,2,0,0,1,2-2h0a2,2,0,0,1,2,2c0,.4-1.26,39.95-38.67,41.17Z"/><path class="cls-4" d="M1202.68,1765a2,2,0,0,1-.8-3.84c8.69-3.79,30.12-31.87,37.64-42.36a2,2,0,0,1,3.25,2.33c-1.13,1.58-27.82,38.69-39.29,43.7A2.09,2.09,0,0,1,1202.68,1765Z"/><path class="cls-9" d="M2070,1252.71c-16.83,16.31-101.54,109.44-120.48,122.6s-154.69,51.56-157.85,54.72-18.42,79.45-27.89,99.45-47.88,101-50.51,105.22-54,88.75-60.68,93-30.52-33.67-44.2-39.29-24.21-1-65.24-11.57-63.14-45.25-74-53.32-23.5-10.87-32.27-11.57-11.93-1.05-11.93-4.92c0-3.11,4.57-4.86,12.8-9.85,2-1.19,4.14-2.56,6.5-4.18,12.27-8.42,65.94-69.45,65.94-69.45a160.57,160.57,0,0,0,7.71-20.34c2.81-9.83,11.93-99.28,11.93-99.28s-84.53,14.74-95.06,16.49-24.21,2.46-30.86-1.05-22.81-20.69-42.46-41.39-70.15-82.79-71.9-86.61-4.21-6.7-3.86-11.26,39.64-36.13,45.25-39.28,4.21,2.8,9.47,8.77,17.19,22.09,33.33,34.72,57.17,54.73,60,55.78,4.91,4.55,14.38,1.4,106.63-46,109.09-47.36,7.36-4.9,18.95-6.31,84.18,0,84.18,0-9.12,51.22,8.77,61.74,75.81-35,75.81-35,24.16,14.5,42.57,15,116.28-12.1,122.6-15.25,133.64-127.86,137.33-127.86c3,0,29.43,15.39,41.38,25.63,2.7,2.32,4.66,4.38,5.44,5.94C2098.41,1226.41,2086.83,1236.4,2070,1252.71Z"/><g class="cls-13"><path class="cls-10" d="M2070,1252.71c-16.83,16.31-101.54,109.44-120.48,122.6s-154.69,51.56-157.85,54.72-18.42,79.45-27.89,99.45-47.88,101-50.51,105.22-54,88.75-60.68,93-30.52-33.67-44.2-39.29-24.21-1-65.24-11.57-63.14-45.25-74-53.32-23.5-10.87-32.27-11.57-11.93-1.05-11.93-4.92c0-3.11,4.57-4.86,12.8-9.85a65.49,65.49,0,0,1,8,5.73s26.83,15,53.67,11.84,82.87,26,112.34,30.78,57.35,15,102.86-54.46,73.76-198,73.76-198l3.17,28.59,16.94-21.57s-2.59,9.12-4.34,15.08,120.32-51.56,123.12-56.82-3.15-19.64-3.85-23.86,15.43,1.75,25.6,3.51,11.57,0,43.15-27.36c23-19.93,71.8-71.82,96.63-98.54,2.7,2.32,4.66,4.38,5.44,5.94C2098.41,1226.41,2086.83,1236.4,2070,1252.71Z"/></g><path class="cls-10" d="M1529.81,1405.9h-.07a2,2,0,0,1-1.93-2.07l1.93-55.95a2,2,0,1,1,4,.14l-1.93,56A2,2,0,0,1,1529.81,1405.9Z"/><path class="cls-10" d="M1790.9,1433.52h-.21a2,2,0,0,1-1.78-2.2c2.85-27-5.56-54.52-5.65-54.79a2,2,0,1,1,3.82-1.19c.36,1.15,8.75,28.51,5.81,56.4A2,2,0,0,1,1790.9,1433.52Z"/><path class="cls-10" d="M1791.36,1427.34a2,2,0,0,1-.79-.17,2,2,0,0,1-1-2.63c8.73-20.14,30.59-39.24,31.51-40a2,2,0,1,1,2.62,3c-.22.19-22.1,19.32-30.46,38.61A2,2,0,0,1,1791.36,1427.34Z"/><path class="cls-10" d="M1529.81,1402a2.1,2.1,0,0,1-.94-.23l-26.48-14a2,2,0,0,1,1.87-3.54l26.49,14a2,2,0,0,1-.94,3.77Z"/><path class="cls-10" d="M1668.54,1362.58a2.23,2.23,0,0,1-.62-.1c-16.78-5.44-26.21-19.62-27.29-41a102.79,102.79,0,0,1,3.36-30.39,2,2,0,0,1,3.84,1.12c-.15.54-15.3,54.58,21.33,66.46a2,2,0,0,1-.62,3.91Z"/><path class="cls-10" d="M1685.75,1362.63c-1,0-2,0-3.08-.05a2,2,0,0,1-1.92-2.08,2,2,0,0,1,2.07-1.92c40.45,1.53,61.73-28.82,61.94-29.12a2,2,0,0,1,3.3,2.25C1747.84,1332,1726.45,1362.63,1685.75,1362.63Z"/><path class="cls-10" d="M1580.76,1576.23c-20.72,0-37.57-4.9-50.31-14.67a58,58,0,0,1-22.28-37.87,2,2,0,0,1,4-.36,54.9,54.9,0,0,0,20.79,35.11c17.26,13.19,42.76,16.94,75.79,11.16a2,2,0,0,1,2.31,1.62,2,2,0,0,1-1.62,2.32A167.41,167.41,0,0,1,1580.76,1576.23Z"/><path class="cls-10" d="M1557,1535c-19.22,0-40.46-11.61-41.44-12.16a2,2,0,0,1-.78-2.71,2,2,0,0,1,2.72-.79c.25.14,25.35,13.85,44.45,11.35a2,2,0,1,1,.53,4A41.46,41.46,0,0,1,1557,1535Z"/><path class="cls-10" d="M1714.57,1557.25a1.87,1.87,0,0,1-.76-.15c-.48-.2-12.2-5.43-53.07-51s-50.63-141.27-51-145.31a2,2,0,1,1,4-.39c.09,1,9.88,98.27,50,143,39.75,44.33,51.2,49.8,51.67,50a2,2,0,0,1-.81,3.83Z"/><path class="cls-10" d="M1628,1502.54a2,2,0,0,1-1.88-1.31c-12.61-34.15-12.23-79.19-12.23-79.64a2,2,0,0,1,2-2h0a2,2,0,0,1,2,2c0,.45-.37,44.76,12,78.21a2,2,0,0,1-1.18,2.57A1.87,1.87,0,0,1,1628,1502.54Z"/><path class="cls-14" d="M1798.56,1213.24a154.44,154.44,0,0,1-18.75,16.53,18.13,18.13,0,0,0,4-5.15c2.42-4.46,4.17-11.71-.64-21.43-4.14-8.38-13.14-18.61-30.78-30.48-53.76-36.16-110.39-10-110.39-10s-14.48-14.46-13.88-41.36,10.24-41.67,17.51-39.88,12.63,8.24,12.63,8.24.41-24.65,12.19-27.19,22,12,22,12,54.85-7.12,85.1,25.2,26.31,48.44,26.31,48.44,11.75-.49,14.27,25.87C1819.48,1187.82,1808.94,1202.42,1798.56,1213.24Z"/><path class="cls-14" d="M1798.07,1200.63a90.22,90.22,0,0,1-4.08,9.1,72.79,72.79,0,0,1-10.18,14.89,68.59,68.59,0,0,1-49.37,22.85l-23.88-18.21-66.21-50.49a90.64,90.64,0,0,1-2.35-16c-.89-13.8.52-34.14,12.72-51.19,20.7-28.91,62.1-33.24,100.07-14.68S1816.52,1152.45,1798.07,1200.63Z"/><path class="cls-15" d="M1779.81,1229.77a18.13,18.13,0,0,0,4-5.15,68.59,68.59,0,0,1-49.37,22.85l-23.88-18.21.08-.08c29.39-28.84,45.56-36.28,45.56-36.28a133.51,133.51,0,0,1,27,10.29,87.94,87.94,0,0,1,10.82,6.54c1.58,1.11,3.1,2.27,4.57,3.51A154.44,154.44,0,0,1,1779.81,1229.77Z"/><path class="cls-11" d="M1627.72,1254.67c5,25.64,14.94,31,26.27,34.5s20.44,3.41,24.66,3.91h0c14.62-1,30.32-4,38.32-8.74,12.1-7.12,28.49-28.49,30.11-30.64l.13-.17s24.48,14.35,33.79,2.15,5.22-22.61-1.39-28.5-20-9-22.33-6.93-7.74,14.74-10,14.75-4.7-.59-5.2-2.33c-.2-.69,1.92-6.86,4.6-14.34,1.5-3.48,3-7.7,4.18-11.41,2.15-5.79,4.15-11.09,5.27-14,0,0-12.84,0-31.41-12a174.26,174.26,0,0,1-30-24.08s-34.32-3.16-45.38-13.76c0,0-9.9,24.41-11.26,32.4s-1.13,13.84-4.39,20.09a65.85,65.85,0,0,0-3.41,7.86.32.32,0,0,1,0,.08C1629.93,1205,1622.9,1229.82,1627.72,1254.67Z"/><path class="cls-12" d="M1762.89,1253.19a6.55,6.55,0,0,1-1.37-.14c-4.19-.94-5-3-5-4.12a3.94,3.94,0,0,1,2.84-3.83l.61-.23c3.19-1.17,4.15-1.87,3.55-3.7-.2-.59-.54-1.32-1.08-1.45a2.55,2.55,0,0,0-2,.82,13,13,0,0,0-1.74,2,1.5,1.5,0,0,1-2.51-1.64,16.84,16.84,0,0,1,2.16-2.54,5.45,5.45,0,0,1,4.8-1.59c1,.25,2.43,1,3.22,3.43,1.6,4.89-2.93,6.56-5.37,7.46l-.57.21c-.67.26-.93.66-.92.81s.7,1,2.7,1.41c2.34.52,8.39-1.89,11.62-6.17a8.77,8.77,0,0,0,.84-10.17c-1.35-2.49-3.05-3.9-5.19-4.3-4.91-.92-10.5,3.78-10.56,3.83a1.5,1.5,0,0,1-2-2.29c.27-.23,6.71-5.66,13-4.49,3,.56,5.5,2.52,7.29,5.82a11.88,11.88,0,0,1-1.08,13.41C1772.73,1250.35,1766.77,1253.19,1762.89,1253.19Z"/><ellipse class="cls-14" cx="1697.21" cy="1201.54" rx="8" ry="5.26" transform="translate(250.46 2695.24) rotate(-81.21)"/><ellipse class="cls-14" cx="1652.63" cy="1191.49" rx="7.11" ry="4.82" transform="translate(223.02 2643.05) rotate(-81.23)"/><ellipse class="cls-7" cx="1695.51" cy="1197.96" rx="3.51" ry="2.23" transform="translate(252.18 2690.17) rotate(-81.2)"/><ellipse class="cls-7" cx="1650.43" cy="1188.83" rx="3.51" ry="2.23" transform="translate(223.02 2637.87) rotate(-81.2)"/><path class="cls-12" d="M1663.7,1231.81l-.24,0c-.4-.07-9.84-1.64-11.9-7.31s2.27-8,7.31-10.55l1.38-.71c4.77-2.49,4.37-11.1,4.36-11.19a1.5,1.5,0,0,1,3-.17c0,.44.52,10.64-6,14l-1.4.72c-5.62,2.87-6.92,3.92-5.86,6.86,1.21,3.33,7.31,5,9.56,5.37a1.5,1.5,0,0,1-.24,3Z"/><path class="cls-14" d="M1708.85,1189.89a2,2,0,0,1-1.64-.86c-3.37-4.8-10.84-5.11-10.92-5.11a2,2,0,0,1,.12-4c.39,0,9.54.35,14.07,6.82a2,2,0,0,1-.48,2.78A2,2,0,0,1,1708.85,1189.89Z"/><path class="cls-14" d="M1647.78,1176.51a2,2,0,0,1-1.53-3.28c2-2.45,7.92-5.94,15.52-1.58a2,2,0,1,1-2,3.47c-6.62-3.8-10.31.49-10.46.67A2,2,0,0,1,1647.78,1176.51Z"/><path class="cls-16" d="M1681.55,1255.25c-1.14,7.34-9.6,12.12-18.9,10.69-7.07-1.09-12.61-5.47-14.34-10.73a11,11,0,0,1-.45-5.16,11.89,11.89,0,0,1,5.53-8.11,19.24,19.24,0,0,1,13.36-2.56,19.47,19.47,0,0,1,11.27,5.69,12.91,12.91,0,0,1,3.54,7A10.93,10.93,0,0,1,1681.55,1255.25Z"/><path class="cls-7" d="M1678,1245.07a40.79,40.79,0,0,1-13.62,0,44,44,0,0,1-11-3.1,19.24,19.24,0,0,1,13.36-2.56A19.47,19.47,0,0,1,1678,1245.07Z"/><path class="cls-12" d="M1681.55,1255.25c-1.14,7.34-9.6,12.12-18.9,10.69-7.07-1.09-12.61-5.47-14.34-10.73,6.41-4.41,15.9-6.45,26-4.89a44,44,0,0,1,7.26,1.75A10.93,10.93,0,0,1,1681.55,1255.25Z"/><path class="cls-2" d="M792.48,1628.26a6.19,6.19,0,0,1-6.17-5.93l-14.73-355.88a6.18,6.18,0,1,1,12.35-.51l14.73,355.88a6.17,6.17,0,0,1-5.92,6.43Z"/><path class="cls-2" d="M928.75,1639.84a6.2,6.2,0,0,1-6.14-5.53L895,1376.58a6.19,6.19,0,0,1,12.3-1.32L934.91,1633a6.19,6.19,0,0,1-5.49,6.81C929.2,1639.82,929,1639.84,928.75,1639.84Z"/><path class="cls-2" d="M993.47,1322.56a6.18,6.18,0,0,1-6-4.81L948,1144.46a6.18,6.18,0,0,1,12.06-2.75L999.51,1315a6.18,6.18,0,0,1-4.66,7.4A6.48,6.48,0,0,1,993.47,1322.56Z"/><path class="cls-2" d="M1585.4,965.83a6.17,6.17,0,0,1-4-1.51L1448.77,849.7a6.18,6.18,0,0,1,8.09-9.35L1589.45,955a6.18,6.18,0,0,1-4,10.86Z"/><path class="cls-2" d="M1942.14,1059.2a6.18,6.18,0,0,1-3.92-1.4L1634,808.16a6.18,6.18,0,0,1,7.85-9.56l304.21,249.64a6.18,6.18,0,0,1-3.92,11Z"/><path class="cls-2" d="M1942.14,879a6.17,6.17,0,0,1-3.4-1l-143.59-94.71A6.18,6.18,0,1,1,1802,773l143.59,94.71a6.18,6.18,0,0,1-3.41,11.34Z"/><path class="cls-17" d="M2016.86,1818.33s-3.69,88.4-8.42,110.5-60,166.53-60,166.53v-85.51Z"/><path class="cls-2" d="M1948.46,2009.85v80c0,6.85-24.21,39.46-37.36,45.25s-97.34,22.1-102.07,16.83-7.37-13.67-7.37-13.67-88.92,2.63-104.18,4.21-22.63-2.63-25.79-8.42-25.78-71-25.78-71l125.33-22Z"/><path class="cls-1" d="M1637.93,2033.53s15.35-104.7,29.56-116.28,69.45-36.3,82.08-45.25,27.88-40,32.62-61.56,21.57-54.61,32.62-54.14,84.71-3.21,99.44-6.37,36.31-8.94,40-5.78,61.56,60,62.62,74.18-47.36,150-54.73,165.22-8.94,22.62-13.68,26.3-145.21,76.82-162.58,76.3-43.67-12.1-81.55-15.26-54.2-1-58.41-7.89S1637.93,2033.53,1637.93,2033.53Z"/><path class="cls-2" d="M1801.66,2138.24s-88.92,2.63-104.18,4.21-22.63-2.63-25.79-8.42-25.78-71-25.78-71l125.33-22Z"/><path class="cls-2" d="M1805.65,2011.93c-3.58,0-7.94-4.47-14.55-11.69-3.42-3.73-7.68-8.39-9.5-8.93-3.48-1-23.53,2.06-35.34,4.26a2.06,2.06,0,1,1-.75-4c5.26-1,31.81-5.79,37.27-4.16,2.71.81,6.1,4.36,11.36,10.1,3.33,3.63,9.48,10.35,11.45,10.35h.07c4.28-.67,61.11-26.69,98.25-44a2.06,2.06,0,0,1,1.74,3.74c-15.69,7.31-94.24,43.84-99.58,44.38Z"/><path class="cls-2" d="M1697,1922.76a2.06,2.06,0,0,1-1-3.89c2.8-1.45,68.59-35.63,74.44-37.76,3.18-1.16,15.2-18.91,25-35.41a2.06,2.06,0,1,1,3.55,2.1c-4.84,8.17-21.1,35-27.12,37.19-4.47,1.63-50.32,25.27-73.94,37.54A2,2,0,0,1,1697,1922.76Z"/><path class="cls-2" d="M1827.4,1883a2.06,2.06,0,0,1-.32-4.1c75.3-11.76,171.36-41.72,172.32-42a2.06,2.06,0,0,1,1.23,3.93c-1,.3-97.3,30.35-172.91,42.16Z"/><path class="cls-17" d="M1911.2,1644.38s-13.45,21.43-17.75,26.25-38.51,32.84-38.51,32.84l12.12-21.23Z"/><path class="cls-2" d="M1867.06,1682.24l-11.34,19.86c-1,1.7-11.6,6.37-15.69,5.94s-27.3-8.31-27.73-10.29a12.32,12.32,0,0,1,.11-4.44s-22.45-12-26.47-13.73-5.24-3.86-5.21-5.74,3.67-21.3,3.67-21.3l34.25,12.31Z"/><path class="cls-1" d="M1786.6,1644.09s18.66-23.82,23.82-24.68,22.4.83,26.8.4,12.6-6,16.83-10.66,13.1-10.5,15.78-8.82,21.49,11.22,25.59,12.52,10.29,2.93,10.75,4.23,6.78,23.63,5,27.3-33,30.52-37,33.27-5.43,4.35-7.13,4.59-47-1.51-51.19-4.1-9.12-9.2-18.08-15.36-13.31-7.94-13.39-10.24S1786.6,1644.09,1786.6,1644.09Z"/><path class="cls-2" d="M1812.41,1693.31s-22.45-12-26.47-13.73-5.24-3.86-5.21-5.74,3.67-21.3,3.67-21.3l34.25,12.31Z"/><path class="cls-17" d="M1174.3,1387.33s4.26,21.29,4.64,26.77-1.43,42.3-1.43,42.3l-4.76-20.44Z"/><path class="cls-2" d="M1172.75,1436l4.45,19.12c.38,1.64-2.12,10.44-4.15,12.37s-16.14,9.33-17.28,8.27a12.2,12.2,0,0,1-2.08-3s-15.72,4.33-18.36,5.34-4.18.31-5.07-.94-8.55-15.91-8.55-15.91l21.14-10.47Z"/><path class="cls-1" d="M1118.64,1454.53s-3.09-25.67-1.2-29,10.38-11.57,12.14-14.23,2.75-10.72,2.39-16.07.81-14,2.81-14.3,14.94-4.29,17.4-5.66,6-3.64,6.81-3,14.33,11.78,15.31,15.13-.11,37.82-.57,41.77-.34,5.78-1,6.86-21.65,24.4-24.77,25-8.47-1.08-15.41-.26-9.73,2-10.86.54S1118.64,1454.53,1118.64,1454.53Z"/><path class="cls-2" d="M1153.69,1472.75s-15.72,4.33-18.36,5.34-4.18.31-5.07-.94-8.55-15.91-8.55-15.91l21.14-10.47Z"/><path class="cls-17" d="M541.9,1597.88s16.57,49.2,22.88,52.36,12.63,0,17.89-2.63,45-7.9,57.09-9.48,31-.26,34.46-1.31S685,1626.3,685,1626.3Z"/><path class="cls-2" d="M541.9,1547.37s-2.64,46.83,0,50.51,40,8.42,52.09,15.26,77.87,19.47,84.18,18.94,34.2-24.73,34.73-26.3,7.89-10,4.73-16-47.88-62.89-58.4-65-76.29,18.94-93.13,20S542.09,1543.67,541.9,1547.37Z"/><path class="cls-2" d="M2025.08,932.09s47.79,20.28,54.35,17.66,8.38-9.44,9.91-15.12,24-38.88,30.83-49,20.42-23.39,21.91-26.64-.71-15.06-.71-15.06Z"/><path class="cls-1" d="M1987.32,898.54s33.26,33.07,37.76,33.55,32.86-24.3,46-28.81,66.27-45.29,70.07-50.36,4.22-42,3.39-43.43-2.22-12.53-8.84-14.19-78.82-6-87.38.5-36.51,69.62-46.9,82.9S1984.68,895.94,1987.32,898.54Z"/><path class="cls-2" d="M1400.16,1115.15s-6.36,21-5,23.64,4.35,3.1,6.81,3.48,17.43,8.31,22,10.74,10.75,7.52,12.19,8,6.29-1,6.29-1Z"/><path class="cls-1" d="M1412.54,1097.75s-12.39,15.49-12.38,17.4,11.71,12.7,14.2,18,22,25.79,24.35,27.16,17.84-.13,18.41-.55,5.16-1.5,5.56-4.36-1.07-33.4-4.18-36.7-30.92-12.18-37-16S1413.51,1096.53,1412.54,1097.75Z"/><path class="cls-2" d="M2070.83,1417.4s6.35,21,5,23.65-4.35,3.09-6.81,3.48-17.43,8.31-22,10.73-10.76,7.52-12.19,8-6.3-1-6.3-1Z"/><path class="cls-1" d="M2058.45,1400s12.38,15.48,12.38,17.39-11.71,12.71-14.2,18-22.05,25.8-24.35,27.16-17.85-.13-18.41-.54-5.17-1.51-5.57-4.37,1.08-33.4,4.19-36.7,30.92-12.18,37-16S2057.47,1398.78,2058.45,1400Z"/><circle class="cls-3" cx="484.28" cy="1415.07" r="29.06"/><circle class="cls-3" cx="306.75" cy="1450.11" r="50.42"/><circle class="cls-3" cx="452.05" cy="1933.61" r="18.92"/><circle class="cls-3" cx="960.1" cy="2127.95" r="36.07"/><circle class="cls-3" cx="2116.8" cy="1777.51" r="40.82"/><circle class="cls-3" cx="2068.08" cy="1564.7" r="15.84"/><circle class="cls-3" cx="2125.46" cy="1000.46" r="17.14"/><circle class="cls-3" cx="1836.96" cy="626.7" r="30.1"/></svg>